{"title":"La.Fin.Du.Silence.2011.FRENCH.DVDRip.XviD-UTT.avi","uid":7558587,"size":734795528,"categoryP":"video","categoryS":"movies","magnet":"?xt=urn:btih:b2fbd7bb6f255ce2ea7e83bbe522150e144b48f8&amp;dn=La.Fin.Du.Silence.2011.FRENCH.DVDRip.XviD-UTT.avi&amp;tr=udp%3A%2F%2Ftracker.openbittorrent.com%3A80&amp;tr=udp%3A%2F%2Fopen.demonii.com%3A1337&amp;tr=udp%3A%2F%2Ftracker.coppersurfer.tk%3A6969&amp;tr=udp%3A%2F%2Fexodus.desync.com%3A6969","seeders":0,"leechers":0,"uploader":"rpessoa","files":1,"time":1345681344,"description":"\n\nGeneral\nComplete name                            : La.Fin.Du.Silence.2011.FRENCH.DVDRip.XviD-UTT.avi\nFormat                                   : AVI\nFormat/Info                              : Audio Video Interleave\nFile size                                : 701 MiB\nDuration                                 : 1h 16mn\nOverall bit rate                         : 1 281 Kbps\n\nVideo\nID                                       : 0\nFormat                                   : MPEG-4 Visual\nFormat profile                           : Simple@L3\nFormat settings, BVOP                    : No\nFormat settings, QPel                    : No\nFormat settings, GMC                     : No warppoints\nFormat settings, Matrix                  : Default (H.263)\nCodec ID                                 : XVID\nCodec ID/Hint                            : XviD\nDuration                                 : 1h 16mn\nBit rate                                 : 1 140 Kbps\nWidth                                    : 624 pixels\nHeight                                   : 336 pixels\nDisplay aspect ratio                     : 1.857\nFrame rate                               : 25.000 fps\nColor space                              : YUV\nChroma subsampling                       : 4:2:0\nBit depth                                : 8 bits\nScan type                                : Progressive\nCompression mode                         : Lossy\nBits/(Pixel*Frame)                       : 0.217\nStream size                              : 624 MiB (89%)\nWriting library                          : XviD 1.1.2 (UTC 2006-11-01)\n\nAudio\nID                                       : 1\nFormat                                   : MPEG Audio\nFormat version                           : Version 1\nFormat profile                           : Layer 3\nMode                                     : Joint stereo\nMode extension                           : MS Stereo\nCodec ID                                 : 55\nCodec ID/Hint                            : MP3\nDuration                                 : 1h 16mn\nSource duration                          : 1h 16mn\nBit rate mode                            : Constant\nBit rate                                 : 128 Kbps\nChannel(s)                               : 2 channels\nSampling rate                            : 48.0 KHz\nCompression mode                         : Lossy\nStream size                              : 70.0 MiB (10%)\nAlignment                                : Split accross interleaves\nInterleave, duration                     : 24 ms (0.60 video frame)\nWriting library                          : LAME3.98\n\n","torrent":{"xt":"urn:btih:b2fbd7bb6f255ce2ea7e83bbe522150e144b48f8","amp;dn":"La.Fin.Du.Silence.2011.FRENCH.DVDRip.XviD-UTT.avi","amp;tr":["udp%3A%2F%2Ftracker.openbittorrent.com%3A80","udp%3A%2F%2Fopen.demonii.com%3A1337","udp%3A%2F%2Ftracker.coppersurfer.tk%3A6969","udp%3A%2F%2Fexodus.desync.com%3A6969"],"infoHash":"b2fbd7bb6f255ce2ea7e83bbe522150e144b48f8","infoHashBuffer":{"type":"Buffer","data":[178,251,215,187,111,37,92,226,234,126,131,187,229,34,21,14,20,75,72,248]},"announce":[],"urlList":[]}}